# xmcd CD database file
#
# Track frame offsets:
#	150
#	13462
#	30227
#	43542
#	58152
#	71822
#	83522
#	101892
#	118412
#	139190
#	157347
#	175212
#	194367
#
# Disc length: 2768 seconds
#
# Revision: 0
# Processed by: cddbd v1.5PL3 Copyright (c) Steve Scherf et al.
# Submitted via: CDex 1.51
#
DISCID=bf0ace0d
DTITLE=Rita Reys - Rita Reys Collage
DYEAR=1994
DGENRE=Jazz
TTITLE0=Alife
TTITLE1=What are you doing the rest of your life
TTITLE2=Embraceable you
TTITLE3=One less bell to answer
TTITLE4=The windmills of your mind
TTITLE5=The man I love
TTITLE6=The windows of the world
TTITLE7=The summer knows
TTITLE8=Oh, lady be good
TTITLE9=Make it easy on yourself
TTITLE10=Once upon a summertime
TTITLE11=I loves you progy
TTITLE12=The hands of time (Brian's song)
EXTD=YEAR: 1994
EXTT0=
EXTT1=
EXTT2=
EXTT3=
EXTT4=
EXTT5=
EXTT6=
EXTT7=
EXTT8=
EXTT9=
EXTT10=
EXTT11=
EXTT12=
PLAYORDER=
